<?xml version="1.0" encoding="us-ascii" standalone="no"?><svg xmlns="http://www.w3.org/2000/svg" xmlns:xlink="http://www.w3.org/1999/xlink" contentStyleType="text/css" height="1166px" preserveAspectRatio="none" style="width:1479px;height:1166px;background:#FFFFFF;" version="1.1" viewBox="0 0 1479 1166" width="1479px" zoomAndPan="magnify"><defs/><g><g id="elem_HelloEGLContext"><rect codeLine="2" fill="#F1F1F1" height="64.2969" id="HelloEGLContext" rx="2.5" ry="2.5" style="stroke:#181818;stroke-width:0.5;" width="147" x="119.5" y="902"/><ellipse cx="134.5" cy="918" fill="#ADD1B2" rx="11" ry="11" style="stroke:#181818;stroke-width:1.0;"/><path d="M137.4688,923.6406 Q136.8906,923.9375 136.25,924.0781 Q135.6094,924.2344 134.9063,924.2344 Q132.4063,924.2344 131.0781,922.5938 Q129.7656,920.9375 129.7656,917.8125 Q129.7656,914.6875 131.0781,913.0313 Q132.4063,911.375 134.9063,911.375 Q135.6094,911.375 136.25,911.5313 Q136.9063,911.6875 137.4688,911.9844 L137.4688,914.7031 Q136.8438,914.125 136.25,913.8594 Q135.6563,913.5781 135.0313,913.5781 Q133.6875,913.5781 133,914.6563 Q132.3125,915.7188 132.3125,917.8125 Q132.3125,919.9063 133,920.9844 Q133.6875,922.0469 135.0313,922.0469 Q135.6563,922.0469 136.25,921.7813 Q136.8438,921.5 137.4688,920.9219 L137.4688,923.6406 Z " fill="#000000"/><text fill="#000000" font-family="sans-serif" font-size="14" lengthAdjust="spacing" textLength="115" x="148.5" y="922.8467">HelloEGLContext</text><line style="stroke:#181818;stroke-width:0.5;" x1="120.5" x2="265.5" y1="934" y2="934"/><text fill="#000000" font-family="sans-serif" font-size="14" lengthAdjust="spacing" textLength="115" x="125.5" y="950.9951">// EGL &#29615;&#22659;&#21021;&#22987;&#21270;</text><line style="stroke:#181818;stroke-width:0.5;" x1="120.5" x2="265.5" y1="958.2969" y2="958.2969"/></g><g id="elem_IGLProgram"><rect codeLine="6" fill="#F1F1F1" height="48" id="IGLProgram" rx="2.5" ry="2.5" style="stroke:#181818;stroke-width:0.5;" width="111" x="301.5" y="910"/><ellipse cx="316.5" cy="926" fill="#B4A7E5" rx="11" ry="11" style="stroke:#181818;stroke-width:1.0;"/><path d="M312.4219,921.7656 L312.4219,919.6094 L319.8125,919.6094 L319.8125,921.7656 L317.3438,921.7656 L317.3438,929.8438 L319.8125,929.8438 L319.8125,932 L312.4219,932 L312.4219,929.8438 L314.8906,929.8438 L314.8906,921.7656 L312.4219,921.7656 Z " fill="#000000"/><text fill="#000000" font-family="sans-serif" font-size="14" font-style="italic" lengthAdjust="spacing" textLength="79" x="330.5" y="930.8467">IGLProgram</text><line style="stroke:#181818;stroke-width:0.5;" x1="302.5" x2="411.5" y1="942" y2="942"/><line style="stroke:#181818;stroke-width:0.5;" x1="302.5" x2="411.5" y1="950" y2="950"/></g><g id="elem_OESGLProgram"><rect codeLine="7" fill="#F1F1F1" height="48" id="OESGLProgram" rx="2.5" ry="2.5" style="stroke:#181818;stroke-width:0.5;" width="137" x="19.5" y="1026"/><ellipse cx="34.5" cy="1042" fill="#ADD1B2" rx="11" ry="11" style="stroke:#181818;stroke-width:1.0;"/><path d="M37.4688,1047.6406 Q36.8906,1047.9375 36.25,1048.0781 Q35.6094,1048.2344 34.9063,1048.2344 Q32.4063,1048.2344 31.0781,1046.5938 Q29.7656,1044.9375 29.7656,1041.8125 Q29.7656,1038.6875 31.0781,1037.0313 Q32.4063,1035.375 34.9063,1035.375 Q35.6094,1035.375 36.25,1035.5313 Q36.9063,1035.6875 37.4688,1035.9844 L37.4688,1038.7031 Q36.8438,1038.125 36.25,1037.8594 Q35.6563,1037.5781 35.0313,1037.5781 Q33.6875,1037.5781 33,1038.6563 Q32.3125,1039.7188 32.3125,1041.8125 Q32.3125,1043.9063 33,1044.9844 Q33.6875,1046.0469 35.0313,1046.0469 Q35.6563,1046.0469 36.25,1045.7813 Q36.8438,1045.5 37.4688,1044.9219 L37.4688,1047.6406 Z " fill="#000000"/><text fill="#000000" font-family="sans-serif" font-size="14" lengthAdjust="spacing" textLength="105" x="48.5" y="1046.8467">OESGLProgram</text><line style="stroke:#181818;stroke-width:0.5;" x1="20.5" x2="155.5" y1="1058" y2="1058"/><line style="stroke:#181818;stroke-width:0.5;" x1="20.5" x2="155.5" y1="1066" y2="1066"/></g><g id="elem_RGBAGLProgram"><rect codeLine="8" fill="#F1F1F1" height="48" id="RGBAGLProgram" rx="2.5" ry="2.5" style="stroke:#181818;stroke-width:0.5;" width="148" x="192" y="1026"/><ellipse cx="207" cy="1042" fill="#ADD1B2" rx="11" ry="11" style="stroke:#181818;stroke-width:1.0;"/><path d="M209.9688,1047.6406 Q209.3906,1047.9375 208.75,1048.0781 Q208.1094,1048.2344 207.4063,1048.2344 Q204.9063,1048.2344 203.5781,1046.5938 Q202.2656,1044.9375 202.2656,1041.8125 Q202.2656,1038.6875 203.5781,1037.0313 Q204.9063,1035.375 207.4063,1035.375 Q208.1094,1035.375 208.75,1035.5313 Q209.4063,1035.6875 209.9688,1035.9844 L209.9688,1038.7031 Q209.3438,1038.125 208.75,1037.8594 Q208.1563,1037.5781 207.5313,1037.5781 Q206.1875,1037.5781 205.5,1038.6563 Q204.8125,1039.7188 204.8125,1041.8125 Q204.8125,1043.9063 205.5,1044.9844 Q206.1875,1046.0469 207.5313,1046.0469 Q208.1563,1046.0469 208.75,1045.7813 Q209.3438,1045.5 209.9688,1044.9219 L209.9688,1047.6406 Z " fill="#000000"/><text fill="#000000" font-family="sans-serif" font-size="14" lengthAdjust="spacing" textLength="116" x="221" y="1046.8467">RGBAGLProgram</text><line style="stroke:#181818;stroke-width:0.5;" x1="193" x2="339" y1="1058" y2="1058"/><line style="stroke:#181818;stroke-width:0.5;" x1="193" x2="339" y1="1066" y2="1066"/></g><g id="elem_NV21GLProgram"><rect codeLine="9" fill="#F1F1F1" height="48" id="NV21GLProgram" rx="2.5" ry="2.5" style="stroke:#181818;stroke-width:0.5;" width="145" x="375.5" y="1026"/><ellipse cx="390.5" cy="1042" fill="#ADD1B2" rx="11" ry="11" style="stroke:#181818;stroke-width:1.0;"/><path d="M393.4688,1047.6406 Q392.8906,1047.9375 392.25,1048.0781 Q391.6094,1048.2344 390.9063,1048.2344 Q388.4063,1048.2344 387.0781,1046.5938 Q385.7656,1044.9375 385.7656,1041.8125 Q385.7656,1038.6875 387.0781,1037.0313 Q388.4063,1035.375 390.9063,1035.375 Q391.6094,1035.375 392.25,1035.5313 Q392.9063,1035.6875 393.4688,1035.9844 L393.4688,1038.7031 Q392.8438,1038.125 392.25,1037.8594 Q391.6563,1037.5781 391.0313,1037.5781 Q389.6875,1037.5781 389,1038.6563 Q388.3125,1039.7188 388.3125,1041.8125 Q388.3125,1043.9063 389,1044.9844 Q389.6875,1046.0469 391.0313,1046.0469 Q391.6563,1046.0469 392.25,1045.7813 Q392.8438,1045.5 393.4688,1044.9219 L393.4688,1047.6406 Z " fill="#000000"/><text fill="#000000" font-family="sans-serif" font-size="14" lengthAdjust="spacing" textLength="113" x="404.5" y="1046.8467">NV21GLProgram</text><line style="stroke:#181818;stroke-width:0.5;" x1="376.5" x2="519.5" y1="1058" y2="1058"/><line style="stroke:#181818;stroke-width:0.5;" x1="376.5" x2="519.5" y1="1066" y2="1066"/></g><g id="elem_YUVGLProgram"><rect codeLine="10" fill="#F1F1F1" height="48" id="YUVGLProgram" rx="2.5" ry="2.5" style="stroke:#181818;stroke-width:0.5;" width="136" x="571" y="1026"/><ellipse cx="586" cy="1042" fill="#ADD1B2" rx="11" ry="11" style="stroke:#181818;stroke-width:1.0;"/><path d="M588.9688,1047.6406 Q588.3906,1047.9375 587.75,1048.0781 Q587.1094,1048.2344 586.4063,1048.2344 Q583.9063,1048.2344 582.5781,1046.5938 Q581.2656,1044.9375 581.2656,1041.8125 Q581.2656,1038.6875 582.5781,1037.0313 Q583.9063,1035.375 586.4063,1035.375 Q587.1094,1035.375 587.75,1035.5313 Q588.4063,1035.6875 588.9688,1035.9844 L588.9688,1038.7031 Q588.3438,1038.125 587.75,1037.8594 Q587.1563,1037.5781 586.5313,1037.5781 Q585.1875,1037.5781 584.5,1038.6563 Q583.8125,1039.7188 583.8125,1041.8125 Q583.8125,1043.9063 584.5,1044.9844 Q585.1875,1046.0469 586.5313,1046.0469 Q587.1563,1046.0469 587.75,1045.7813 Q588.3438,1045.5 588.9688,1044.9219 L588.9688,1047.6406 Z " fill="#000000"/><text fill="#000000" font-family="sans-serif" font-size="14" lengthAdjust="spacing" textLength="104" x="600" y="1046.8467">YUVGLProgram</text><line style="stroke:#181818;stroke-width:0.5;" x1="572" x2="706" y1="1058" y2="1058"/><line style="stroke:#181818;stroke-width:0.5;" x1="572" x2="706" y1="1066" y2="1066"/></g><g id="elem_GMN12"><path d="M447.5,921.5 L447.5,930 L412.746,934 L447.5,938 L447.5,946.6328 A0,0 0 0 0 447.5,946.6328 L550.5,946.6328 A0,0 0 0 0 550.5,946.6328 L550.5,931.5 L540.5,921.5 L447.5,921.5 A0,0 0 0 0 447.5,921.5 " fill="#FEFFDD" style="stroke:#181818;stroke-width:0.5;"/><path d="M540.5,921.5 L540.5,931.5 L550.5,931.5 L540.5,921.5 " fill="#FEFFDD" style="stroke:#181818;stroke-width:0.5;"/><text fill="#000000" font-family="sans-serif" font-size="13" lengthAdjust="spacing" textLength="82" x="453.5" y="938.5669">GL&#30528;&#33394;&#22120;&#25509;&#21475;</text></g><g id="elem_GMN15"><path d="M21.5,1134 L21.5,1159.1328 A0,0 0 0 0 21.5,1159.1328 L154.5,1159.1328 A0,0 0 0 0 154.5,1159.1328 L154.5,1144 L144.5,1134 L92,1134 L88,1074.3596 L84,1134 L21.5,1134 A0,0 0 0 0 21.5,1134 " fill="#FEFFDD" style="stroke:#181818;stroke-width:0.5;"/><path d="M144.5,1134 L144.5,1144 L154.5,1144 L144.5,1134 " fill="#FEFFDD" style="stroke:#181818;stroke-width:0.5;"/><text fill="#000000" font-family="sans-serif" font-size="13" lengthAdjust="spacing" textLength="112" x="27.5" y="1151.0669">OES 2d&#32441;&#29702;&#30528;&#33394;&#22120;</text></g><g id="elem_GMN18"><path d="M195,1134 L195,1159.1328 A0,0 0 0 0 195,1159.1328 L337,1159.1328 A0,0 0 0 0 337,1159.1328 L337,1144 L327,1134 L270,1134 L266,1074.3596 L262,1134 L195,1134 A0,0 0 0 0 195,1134 " fill="#FEFFDD" style="stroke:#181818;stroke-width:0.5;"/><path d="M327,1134 L327,1144 L337,1144 L327,1134 " fill="#FEFFDD" style="stroke:#181818;stroke-width:0.5;"/><text fill="#000000" font-family="sans-serif" font-size="13" lengthAdjust="spacing" textLength="121" x="201" y="1151.0669">RGBA 2d&#32441;&#29702;&#30528;&#33394;&#22120;</text></g><g id="elem_GMN21"><path d="M374.5,1134 L374.5,1159.1328 A0,0 0 0 0 374.5,1159.1328 L515.5,1159.1328 A0,0 0 0 0 515.5,1159.1328 L515.5,1144 L505.5,1134 L449.369,1134 L447.258,1074.3596 L441.369,1134 L374.5,1134 A0,0 0 0 0 374.5,1134 " fill="#FEFFDD" style="stroke:#181818;stroke-width:0.5;"/><path d="M505.5,1134 L505.5,1144 L515.5,1144 L505.5,1134 " fill="#FEFFDD" style="stroke:#181818;stroke-width:0.5;"/><text fill="#000000" font-family="sans-serif" font-size="13" lengthAdjust="spacing" textLength="120" x="380.5" y="1151.0669">NV21 2d&#32441;&#29702;&#30528;&#33394;&#22120;</text></g><g id="elem_GMN24"><path d="M551,1134 L551,1159.1328 A0,0 0 0 0 551,1159.1328 L761,1159.1328 A0,0 0 0 0 761,1159.1328 L761,1144 L751,1134 L657.909,1134 L643.202,1074.3596 L649.909,1134 L551,1134 A0,0 0 0 0 551,1134 " fill="#FEFFDD" style="stroke:#181818;stroke-width:0.5;"/><path d="M751,1134 L751,1144 L761,1144 L751,1134 " fill="#FEFFDD" style="stroke:#181818;stroke-width:0.5;"/><text fill="#000000" font-family="sans-serif" font-size="13" lengthAdjust="spacing" textLength="189" x="557" y="1151.0669">YUV420/YUV422 2d&#32441;&#29702;&#30528;&#33394;&#22120;</text></g><g id="elem_Obo"><rect codeLine="32" fill="#F1F1F1" height="64.2969" id="Obo" rx="2.5" ry="2.5" style="stroke:#181818;stroke-width:0.5;" width="245" x="585.5" y="902"/><ellipse cx="689.25" cy="918" fill="#ADD1B2" rx="11" ry="11" style="stroke:#181818;stroke-width:1.0;"/><path d="M692.2188,923.6406 Q691.6406,923.9375 691,924.0781 Q690.3594,924.2344 689.6563,924.2344 Q687.1563,924.2344 685.8281,922.5938 Q684.5156,920.9375 684.5156,917.8125 Q684.5156,914.6875 685.8281,913.0313 Q687.1563,911.375 689.6563,911.375 Q690.3594,911.375 691,911.5313 Q691.6563,911.6875 692.2188,911.9844 L692.2188,914.7031 Q691.5938,914.125 691,913.8594 Q690.4063,913.5781 689.7813,913.5781 Q688.4375,913.5781 687.75,914.6563 Q687.0625,915.7188 687.0625,917.8125 Q687.0625,919.9063 687.75,920.9844 Q688.4375,922.0469 689.7813,922.0469 Q690.4063,922.0469 691,921.7813 Q691.5938,921.5 692.2188,920.9219 L692.2188,923.6406 Z " fill="#000000"/><text fill="#000000" font-family="sans-serif" font-size="14" lengthAdjust="spacing" textLength="29" x="709.75" y="922.8467">Obo</text><line style="stroke:#181818;stroke-width:0.5;" x1="586.5" x2="829.5" y1="934" y2="934"/><text fill="#000000" font-family="sans-serif" font-size="14" lengthAdjust="spacing" textLength="233" x="591.5" y="950.9951">// Obo&#24211;,&#23553;&#35013;OpenSL ES + AAudio</text><line style="stroke:#181818;stroke-width:0.5;" x1="586.5" x2="829.5" y1="958.2969" y2="958.2969"/></g><g id="elem_OboAudioPlayer"><rect codeLine="36" fill="#F1F1F1" height="64.2969" id="OboAudioPlayer" rx="2.5" ry="2.5" style="stroke:#181818;stroke-width:0.5;" width="141" x="552.5" y="729"/><ellipse cx="567.5" cy="745" fill="#ADD1B2" rx="11" ry="11" style="stroke:#181818;stroke-width:1.0;"/><path d="M570.4688,750.6406 Q569.8906,750.9375 569.25,751.0781 Q568.6094,751.2344 567.9063,751.2344 Q565.4063,751.2344 564.0781,749.5938 Q562.7656,747.9375 562.7656,744.8125 Q562.7656,741.6875 564.0781,740.0313 Q565.4063,738.375 567.9063,738.375 Q568.6094,738.375 569.25,738.5313 Q569.9063,738.6875 570.4688,738.9844 L570.4688,741.7031 Q569.8438,741.125 569.25,740.8594 Q568.6563,740.5781 568.0313,740.5781 Q566.6875,740.5781 566,741.6563 Q565.3125,742.7188 565.3125,744.8125 Q565.3125,746.9063 566,747.9844 Q566.6875,749.0469 568.0313,749.0469 Q568.6563,749.0469 569.25,748.7813 Q569.8438,748.5 570.4688,747.9219 L570.4688,750.6406 Z " fill="#000000"/><text fill="#000000" font-family="sans-serif" font-size="14" lengthAdjust="spacing" textLength="109" x="581.5" y="749.8467">OboAudioPlayer</text><line style="stroke:#181818;stroke-width:0.5;" x1="553.5" x2="692.5" y1="761" y2="761"/><text fill="#000000" font-family="sans-serif" font-size="14" lengthAdjust="spacing" textLength="84" x="558.5" y="777.9951">// &#38899;&#39057;&#25773;&#25918;&#22120;</text><line style="stroke:#181818;stroke-width:0.5;" x1="553.5" x2="692.5" y1="785.2969" y2="785.2969"/></g><g id="elem_SimpleCanvas"><rect codeLine="40" fill="#F1F1F1" height="64.2969" id="SimpleCanvas" rx="2.5" ry="2.5" style="stroke:#181818;stroke-width:0.5;" width="128" x="293" y="729"/><ellipse cx="308" cy="745" fill="#ADD1B2" rx="11" ry="11" style="stroke:#181818;stroke-width:1.0;"/><path d="M310.9688,750.6406 Q310.3906,750.9375 309.75,751.0781 Q309.1094,751.2344 308.4063,751.2344 Q305.9063,751.2344 304.5781,749.5938 Q303.2656,747.9375 303.2656,744.8125 Q303.2656,741.6875 304.5781,740.0313 Q305.9063,738.375 308.4063,738.375 Q309.1094,738.375 309.75,738.5313 Q310.4063,738.6875 310.9688,738.9844 L310.9688,741.7031 Q310.3438,741.125 309.75,740.8594 Q309.1563,740.5781 308.5313,740.5781 Q307.1875,740.5781 306.5,741.6563 Q305.8125,742.7188 305.8125,744.8125 Q305.8125,746.9063 306.5,747.9844 Q307.1875,749.0469 308.5313,749.0469 Q309.1563,749.0469 309.75,748.7813 Q310.3438,748.5 310.9688,747.9219 L310.9688,750.6406 Z " fill="#000000"/><text fill="#000000" font-family="sans-serif" font-size="14" lengthAdjust="spacing" textLength="96" x="322" y="749.8467">SimpleCanvas</text><line style="stroke:#181818;stroke-width:0.5;" x1="294" x2="420" y1="761" y2="761"/><text fill="#000000" font-family="sans-serif" font-size="14" lengthAdjust="spacing" textLength="84" x="299" y="777.9951">// &#35270;&#39057;&#28210;&#26579;&#22120;</text><line style="stroke:#181818;stroke-width:0.5;" x1="294" x2="420" y1="785.2969" y2="785.2969"/></g><g id="elem_HelloClock"><rect codeLine="48" fill="#F1F1F1" height="162.0781" id="HelloClock" rx="2.5" ry="2.5" style="stroke:#181818;stroke-width:0.5;" width="477" x="728.5" y="680"/><ellipse cx="926.75" cy="696" fill="#ADD1B2" rx="11" ry="11" style="stroke:#181818;stroke-width:1.0;"/><path d="M929.7188,701.6406 Q929.1406,701.9375 928.5,702.0781 Q927.8594,702.2344 927.1563,702.2344 Q924.6563,702.2344 923.3281,700.5938 Q922.0156,698.9375 922.0156,695.8125 Q922.0156,692.6875 923.3281,691.0313 Q924.6563,689.375 927.1563,689.375 Q927.8594,689.375 928.5,689.5313 Q929.1563,689.6875 929.7188,689.9844 L929.7188,692.7031 Q929.0938,692.125 928.5,691.8594 Q927.9063,691.5781 927.2813,691.5781 Q925.9375,691.5781 925.25,692.6563 Q924.5625,693.7188 924.5625,695.8125 Q924.5625,697.9063 925.25,698.9844 Q925.9375,700.0469 927.2813,700.0469 Q927.9063,700.0469 928.5,699.7813 Q929.0938,699.5 929.7188,698.9219 L929.7188,701.6406 Z " fill="#000000"/><text fill="#000000" font-family="sans-serif" font-size="14" lengthAdjust="spacing" textLength="72" x="947.25" y="700.8467">HelloClock</text><line style="stroke:#181818;stroke-width:0.5;" x1="729.5" x2="1204.5" y1="712" y2="712"/><line style="stroke:#181818;stroke-width:0.5;" x1="729.5" x2="1204.5" y1="720" y2="720"/><ellipse cx="739.5" cy="733.6484" fill="#84BE84" rx="3" ry="3" style="stroke:#038048;stroke-width:1.0;"/><text fill="#000000" font-family="sans-serif" font-size="14" lengthAdjust="spacing" textLength="279" x="748.5" y="736.9951">setPtsUs(int64_t pts, int64_t durationUs)</text><ellipse cx="739.5" cy="749.9453" fill="#84BE84" rx="3" ry="3" style="stroke:#038048;stroke-width:1.0;"/><text fill="#000000" font-family="sans-serif" font-size="14" lengthAdjust="spacing" textLength="451" x="748.5" y="753.292">setPtsUsAt(int64_t pts, int64_t durationUs, int64_t timestampsUs)</text><ellipse cx="739.5" cy="766.2422" fill="#84BE84" rx="3" ry="3" style="stroke:#038048;stroke-width:1.0;"/><text fill="#000000" font-family="sans-serif" font-size="14" lengthAdjust="spacing" textLength="175" x="748.5" y="769.5889">setPaused(bool paused);</text><text fill="#000000" font-family="sans-serif" font-size="14" lengthAdjust="spacing" textLength="112" x="748.5" y="785.8857">bool isPaused();</text><text fill="#000000" font-family="sans-serif" font-size="14" lengthAdjust="spacing" textLength="4" x="748.5" y="802.1826">&#160;</text><text fill="#000000" font-family="sans-serif" font-size="14" lengthAdjust="spacing" textLength="252" x="748.5" y="818.4795">int64_t getDelayUs(IAVFrame frame);</text><text fill="#000000" font-family="sans-serif" font-size="14" lengthAdjust="spacing" textLength="180" x="748.5" y="834.7764">int64_t getRemainingUs();</text></g><g id="elem_HelloAVSync"><rect codeLine="57" fill="#F1F1F1" height="80.5938" id="HelloAVSync" rx="2.5" ry="2.5" style="stroke:#181818;stroke-width:0.5;" width="238" x="731" y="539"/><ellipse cx="803.25" cy="555" fill="#ADD1B2" rx="11" ry="11" style="stroke:#181818;stroke-width:1.0;"/><path d="M806.2188,560.6406 Q805.6406,560.9375 805,561.0781 Q804.3594,561.2344 803.6563,561.2344 Q801.1563,561.2344 799.8281,559.5938 Q798.5156,557.9375 798.5156,554.8125 Q798.5156,551.6875 799.8281,550.0313 Q801.1563,548.375 803.6563,548.375 Q804.3594,548.375 805,548.5313 Q805.6563,548.6875 806.2188,548.9844 L806.2188,551.7031 Q805.5938,551.125 805,550.8594 Q804.4063,550.5781 803.7813,550.5781 Q802.4375,550.5781 801.75,551.6563 Q801.0625,552.7188 801.0625,554.8125 Q801.0625,556.9063 801.75,557.9844 Q802.4375,559.0469 803.7813,559.0469 Q804.4063,559.0469 805,558.7813 Q805.5938,558.5 806.2188,557.9219 L806.2188,560.6406 Z " fill="#000000"/><text fill="#000000" font-family="sans-serif" font-size="14" lengthAdjust="spacing" textLength="85" x="823.75" y="559.8467">HelloAVSync</text><line style="stroke:#181818;stroke-width:0.5;" x1="732" x2="968" y1="571" y2="571"/><text fill="#000000" font-family="sans-serif" font-size="14" lengthAdjust="spacing" textLength="226" x="737" y="587.9951">HelloClock audioClock // &#38899;&#39057;&#26102;&#38047;</text><text fill="#000000" font-family="sans-serif" font-size="14" lengthAdjust="spacing" textLength="225" x="737" y="604.292">HelloClock videoClock // &#35270;&#39057;&#26102;&#38047;</text><line style="stroke:#181818;stroke-width:0.5;" x1="732" x2="968" y1="611.5938" y2="611.5938"/></g><g id="elem_HelloPlayerCallback"><rect codeLine="62" fill="#F1F1F1" height="48" id="HelloPlayerCallback" rx="2.5" ry="2.5" style="stroke:#181818;stroke-width:0.5;" width="164" x="1004" y="555.5"/><ellipse cx="1019" cy="571.5" fill="#ADD1B2" rx="11" ry="11" style="stroke:#181818;stroke-width:1.0;"/><path d="M1021.9688,577.1406 Q1021.3906,577.4375 1020.75,577.5781 Q1020.1094,577.7344 1019.4063,577.7344 Q1016.9063,577.7344 1015.5781,576.0938 Q1014.2656,574.4375 1014.2656,571.3125 Q1014.2656,568.1875 1015.5781,566.5313 Q1016.9063,564.875 1019.4063,564.875 Q1020.1094,564.875 1020.75,565.0313 Q1021.4063,565.1875 1021.9688,565.4844 L1021.9688,568.2031 Q1021.3438,567.625 1020.75,567.3594 Q1020.1563,567.0781 1019.5313,567.0781 Q1018.1875,567.0781 1017.5,568.1563 Q1016.8125,569.2188 1016.8125,571.3125 Q1016.8125,573.4063 1017.5,574.4844 Q1018.1875,575.5469 1019.5313,575.5469 Q1020.1563,575.5469 1020.75,575.2813 Q1021.3438,575 1021.9688,574.4219 L1021.9688,577.1406 Z " fill="#000000"/><text fill="#000000" font-family="sans-serif" font-size="14" lengthAdjust="spacing" textLength="132" x="1033" y="576.3467">HelloPlayerCallback</text><line style="stroke:#181818;stroke-width:0.5;" x1="1005" x2="1167" y1="587.5" y2="587.5"/><line style="stroke:#181818;stroke-width:0.5;" x1="1005" x2="1167" y1="595.5" y2="595.5"/></g><g id="elem_HelloProcessor"><rect codeLine="66" fill="#F1F1F1" height="80.5938" id="HelloProcessor" rx="2.5" ry="2.5" style="stroke:#181818;stroke-width:0.5;" width="307" x="168.5" y="202.5"/><ellipse cx="265.75" cy="218.5" fill="#ADD1B2" rx="11" ry="11" style="stroke:#181818;stroke-width:1.0;"/><path d="M268.7188,224.1406 Q268.1406,224.4375 267.5,224.5781 Q266.8594,224.7344 266.1563,224.7344 Q263.6563,224.7344 262.3281,223.0938 Q261.0156,221.4375 261.0156,218.3125 Q261.0156,215.1875 262.3281,213.5313 Q263.6563,211.875 266.1563,211.875 Q266.8594,211.875 267.5,212.0313 Q268.1563,212.1875 268.7188,212.4844 L268.7188,215.2031 Q268.0938,214.625 267.5,214.3594 Q266.9063,214.0781 266.2813,214.0781 Q264.9375,214.0781 264.25,215.1563 Q263.5625,216.2188 263.5625,218.3125 Q263.5625,220.4063 264.25,221.4844 Q264.9375,222.5469 266.2813,222.5469 Q266.9063,222.5469 267.5,222.2813 Q268.0938,222 268.7188,221.4219 L268.7188,224.1406 Z " fill="#000000"/><text fill="#000000" font-family="sans-serif" font-size="14" lengthAdjust="spacing" textLength="104" x="286.25" y="223.3467">HelloProcessor</text><line style="stroke:#181818;stroke-width:0.5;" x1="169.5" x2="474.5" y1="234.5" y2="234.5"/><text fill="#000000" font-family="sans-serif" font-size="14" lengthAdjust="spacing" textLength="140" x="174.5" y="251.4951">// &#21333;&#32447;&#31243;&#20107;&#20214;&#39537;&#21160;&#27169;&#22411;</text><text fill="#000000" font-family="sans-serif" font-size="14" lengthAdjust="spacing" textLength="295" x="174.5" y="267.792">// &#28040;&#24687;&#38431;&#21015; + &#23376;&#32447;&#31243; + &#20114;&#26021;&#38145; = Handler&#26426;&#21046;</text><line style="stroke:#181818;stroke-width:0.5;" x1="169.5" x2="474.5" y1="275.0938" y2="275.0938"/></g><g id="elem_HelloAudioPlayer"><rect codeLine="70" fill="#F1F1F1" height="64.2969" id="HelloAudioPlayer" rx="2.5" ry="2.5" style="stroke:#181818;stroke-width:0.5;" width="146" x="550" y="547.5"/><ellipse cx="565" cy="563.5" fill="#ADD1B2" rx="11" ry="11" style="stroke:#181818;stroke-width:1.0;"/><path d="M567.9688,569.1406 Q567.3906,569.4375 566.75,569.5781 Q566.1094,569.7344 565.4063,569.7344 Q562.9063,569.7344 561.5781,568.0938 Q560.2656,566.4375 560.2656,563.3125 Q560.2656,560.1875 561.5781,558.5313 Q562.9063,556.875 565.4063,556.875 Q566.1094,556.875 566.75,557.0313 Q567.4063,557.1875 567.9688,557.4844 L567.9688,560.2031 Q567.3438,559.625 566.75,559.3594 Q566.1563,559.0781 565.5313,559.0781 Q564.1875,559.0781 563.5,560.1563 Q562.8125,561.2188 562.8125,563.3125 Q562.8125,565.4063 563.5,566.4844 Q564.1875,567.5469 565.5313,567.5469 Q566.1563,567.5469 566.75,567.2813 Q567.3438,567 567.9688,566.4219 L567.9688,569.1406 Z " fill="#000000"/><text fill="#000000" font-family="sans-serif" font-size="14" lengthAdjust="spacing" textLength="114" x="579" y="568.3467">HelloAudioPlayer</text><line style="stroke:#181818;stroke-width:0.5;" x1="551" x2="695" y1="579.5" y2="579.5"/><text fill="#000000" font-family="sans-serif" font-size="14" lengthAdjust="spacing" textLength="84" x="556" y="596.4951">// &#38899;&#39057;&#25773;&#25918;&#22120;</text><line style="stroke:#181818;stroke-width:0.5;" x1="551" x2="695" y1="603.7969" y2="603.7969"/></g><g id="elem_HelloVideoPlayer"><rect codeLine="73" fill="#F1F1F1" height="64.2969" id="HelloVideoPlayer" rx="2.5" ry="2.5" style="stroke:#181818;stroke-width:0.5;" width="146" x="369" y="547.5"/><ellipse cx="384" cy="563.5" fill="#ADD1B2" rx="11" ry="11" style="stroke:#181818;stroke-width:1.0;"/><path d="M386.9688,569.1406 Q386.3906,569.4375 385.75,569.5781 Q385.1094,569.7344 384.4063,569.7344 Q381.9063,569.7344 380.5781,568.0938 Q379.2656,566.4375 379.2656,563.3125 Q379.2656,560.1875 380.5781,558.5313 Q381.9063,556.875 384.4063,556.875 Q385.1094,556.875 385.75,557.0313 Q386.4063,557.1875 386.9688,557.4844 L386.9688,560.2031 Q386.3438,559.625 385.75,559.3594 Q385.1563,559.0781 384.5313,559.0781 Q383.1875,559.0781 382.5,560.1563 Q381.8125,561.2188 381.8125,563.3125 Q381.8125,565.4063 382.5,566.4844 Q383.1875,567.5469 384.5313,567.5469 Q385.1563,567.5469 385.75,567.2813 Q386.3438,567 386.9688,566.4219 L386.9688,569.1406 Z " fill="#000000"/><text fill="#000000" font-family="sans-serif" font-size="14" lengthAdjust="spacing" textLength="114" x="398" y="568.3467">HelloVideoPlayer</text><line style="stroke:#181818;stroke-width:0.5;" x1="370" x2="514" y1="579.5" y2="579.5"/><text fill="#000000" font-family="sans-serif" font-size="14" lengthAdjust="spacing" textLength="84" x="375" y="596.4951">// &#35270;&#39057;&#28210;&#26579;&#22120;</text><line style="stroke:#181818;stroke-width:0.5;" x1="370" x2="514" y1="603.7969" y2="603.7969"/></g><g id="elem_HelloAVDecoder"><rect codeLine="76" fill="#F1F1F1" height="64.2969" id="HelloAVDecoder" rx="2.5" ry="2.5" style="stroke:#181818;stroke-width:0.5;" width="144" x="7" y="547.5"/><ellipse cx="22" cy="563.5" fill="#ADD1B2" rx="11" ry="11" style="stroke:#181818;stroke-width:1.0;"/><path d="M24.9688,569.1406 Q24.3906,569.4375 23.75,569.5781 Q23.1094,569.7344 22.4063,569.7344 Q19.9063,569.7344 18.5781,568.0938 Q17.2656,566.4375 17.2656,563.3125 Q17.2656,560.1875 18.5781,558.5313 Q19.9063,556.875 22.4063,556.875 Q23.1094,556.875 23.75,557.0313 Q24.4063,557.1875 24.9688,557.4844 L24.9688,560.2031 Q24.3438,559.625 23.75,559.3594 Q23.1563,559.0781 22.5313,559.0781 Q21.1875,559.0781 20.5,560.1563 Q19.8125,561.2188 19.8125,563.3125 Q19.8125,565.4063 20.5,566.4844 Q21.1875,567.5469 22.5313,567.5469 Q23.1563,567.5469 23.75,567.2813 Q24.3438,567 24.9688,566.4219 L24.9688,569.1406 Z " fill="#000000"/><text fill="#000000" font-family="sans-serif" font-size="14" lengthAdjust="spacing" textLength="112" x="36" y="568.3467">HelloAVDecoder</text><line style="stroke:#181818;stroke-width:0.5;" x1="8" x2="150" y1="579.5" y2="579.5"/><text fill="#000000" font-family="sans-serif" font-size="14" lengthAdjust="spacing" textLength="98" x="13" y="596.4951">// &#38899;&#35270;&#39057;&#35299;&#30721;&#22120;</text><line style="stroke:#181818;stroke-width:0.5;" x1="8" x2="150" y1="603.7969" y2="603.7969"/></g><g id="elem_HelloDataReader"><rect codeLine="79" fill="#F1F1F1" height="64.2969" id="HelloDataReader" rx="2.5" ry="2.5" style="stroke:#181818;stroke-width:0.5;" width="148" x="186" y="547.5"/><ellipse cx="201" cy="563.5" fill="#ADD1B2" rx="11" ry="11" style="stroke:#181818;stroke-width:1.0;"/><path d="M203.9688,569.1406 Q203.3906,569.4375 202.75,569.5781 Q202.1094,569.7344 201.4063,569.7344 Q198.9063,569.7344 197.5781,568.0938 Q196.2656,566.4375 196.2656,563.3125 Q196.2656,560.1875 197.5781,558.5313 Q198.9063,556.875 201.4063,556.875 Q202.1094,556.875 202.75,557.0313 Q203.4063,557.1875 203.9688,557.4844 L203.9688,560.2031 Q203.3438,559.625 202.75,559.3594 Q202.1563,559.0781 201.5313,559.0781 Q200.1875,559.0781 199.5,560.1563 Q198.8125,561.2188 198.8125,563.3125 Q198.8125,565.4063 199.5,566.4844 Q200.1875,567.5469 201.5313,567.5469 Q202.1563,567.5469 202.75,567.2813 Q203.3438,567 203.9688,566.4219 L203.9688,569.1406 Z " fill="#000000"/><text fill="#000000" font-family="sans-serif" font-size="14" lengthAdjust="spacing" textLength="116" x="215" y="568.3467">HelloDataReader</text><line style="stroke:#181818;stroke-width:0.5;" x1="187" x2="333" y1="579.5" y2="579.5"/><text fill="#000000" font-family="sans-serif" font-size="14" lengthAdjust="spacing" textLength="118" x="192" y="596.4951">// &#35299;&#21327;&#35758; + &#35299;&#22797;&#29992;</text><line style="stroke:#181818;stroke-width:0.5;" x1="187" x2="333" y1="603.7969" y2="603.7969"/></g><g id="elem_PlayConfig"><rect codeLine="86" fill="#F1F1F1" height="64.2969" id="PlayConfig" rx="2.5" ry="2.5" style="stroke:#181818;stroke-width:0.5;" width="110" x="1203" y="547.5"/><ellipse cx="1221.15" cy="563.5" fill="#ADD1B2" rx="11" ry="11" style="stroke:#181818;stroke-width:1.0;"/><path d="M1224.1188,569.1406 Q1223.5406,569.4375 1222.9,569.5781 Q1222.2594,569.7344 1221.5563,569.7344 Q1219.0563,569.7344 1217.7281,568.0938 Q1216.4156,566.4375 1216.4156,563.3125 Q1216.4156,560.1875 1217.7281,558.5313 Q1219.0563,556.875 1221.5563,556.875 Q1222.2594,556.875 1222.9,557.0313 Q1223.5563,557.1875 1224.1188,557.4844 L1224.1188,560.2031 Q1223.4938,559.625 1222.9,559.3594 Q1222.3063,559.0781 1221.6813,559.0781 Q1220.3375,559.0781 1219.65,560.1563 Q1218.9625,561.2188 1218.9625,563.3125 Q1218.9625,565.4063 1219.65,566.4844 Q1220.3375,567.5469 1221.6813,567.5469 Q1222.3063,567.5469 1222.9,567.2813 Q1223.4938,567 1224.1188,566.4219 L1224.1188,569.1406 Z " fill="#000000"/><text fill="#000000" font-family="sans-serif" font-size="14" lengthAdjust="spacing" textLength="71" x="1235.85" y="568.3467">PlayConfig</text><line style="stroke:#181818;stroke-width:0.5;" x1="1204" x2="1312" y1="579.5" y2="579.5"/><text fill="#000000" font-family="sans-serif" font-size="14" lengthAdjust="spacing" textLength="98" x="1209" y="596.4951">// &#25773;&#25918;&#37197;&#32622;&#20449;&#24687;</text><line style="stroke:#181818;stroke-width:0.5;" x1="1204" x2="1312" y1="603.7969" y2="603.7969"/></g><g id="elem_MediaInfo"><rect codeLine="90" fill="#F1F1F1" height="64.2969" id="MediaInfo" rx="2.5" ry="2.5" style="stroke:#181818;stroke-width:0.5;" width="124" x="1348" y="547.5"/><ellipse cx="1374.7" cy="563.5" fill="#ADD1B2" rx="11" ry="11" style="stroke:#181818;stroke-width:1.0;"/><path d="M1377.6688,569.1406 Q1377.0906,569.4375 1376.45,569.5781 Q1375.8094,569.7344 1375.1063,569.7344 Q1372.6063,569.7344 1371.2781,568.0938 Q1369.9656,566.4375 1369.9656,563.3125 Q1369.9656,560.1875 1371.2781,558.5313 Q1372.6063,556.875 1375.1063,556.875 Q1375.8094,556.875 1376.45,557.0313 Q1377.1063,557.1875 1377.6688,557.4844 L1377.6688,560.2031 Q1377.0438,559.625 1376.45,559.3594 Q1375.8563,559.0781 1375.2313,559.0781 Q1373.8875,559.0781 1373.2,560.1563 Q1372.5125,561.2188 1372.5125,563.3125 Q1372.5125,565.4063 1373.2,566.4844 Q1373.8875,567.5469 1375.2313,567.5469 Q1375.8563,567.5469 1376.45,567.2813 Q1377.0438,567 1377.6688,566.4219 L1377.6688,569.1406 Z " fill="#000000"/><text fill="#000000" font-family="sans-serif" font-size="14" lengthAdjust="spacing" textLength="66" x="1391.3" y="568.3467">MediaInfo</text><line style="stroke:#181818;stroke-width:0.5;" x1="1349" x2="1471" y1="579.5" y2="579.5"/><text fill="#000000" font-family="sans-serif" font-size="14" lengthAdjust="spacing" textLength="112" x="1354" y="596.4951">// &#22810;&#23186;&#20307;&#22522;&#26412;&#20449;&#24687;</text><line style="stroke:#181818;stroke-width:0.5;" x1="1349" x2="1471" y1="603.7969" y2="603.7969"/></g><g id="elem_HelloPlayer"><rect codeLine="94" fill="#F1F1F1" height="471.7188" id="HelloPlayer" rx="2.5" ry="2.5" style="stroke:#181818;stroke-width:0.5;" width="327" x="572.5" y="7"/><ellipse cx="694.25" cy="23" fill="#ADD1B2" rx="11" ry="11" style="stroke:#181818;stroke-width:1.0;"/><path d="M697.2188,28.6406 Q696.6406,28.9375 696,29.0781 Q695.3594,29.2344 694.6563,29.2344 Q692.1563,29.2344 690.8281,27.5938 Q689.5156,25.9375 689.5156,22.8125 Q689.5156,19.6875 690.8281,18.0313 Q692.1563,16.375 694.6563,16.375 Q695.3594,16.375 696,16.5313 Q696.6563,16.6875 697.2188,16.9844 L697.2188,19.7031 Q696.5938,19.125 696,18.8594 Q695.4063,18.5781 694.7813,18.5781 Q693.4375,18.5781 692.75,19.6563 Q692.0625,20.7188 692.0625,22.8125 Q692.0625,24.9063 692.75,25.9844 Q693.4375,27.0469 694.7813,27.0469 Q695.4063,27.0469 696,26.7813 Q696.5938,26.5 697.2188,25.9219 L697.2188,28.6406 Z " fill="#000000"/><text fill="#000000" font-family="sans-serif" font-size="14" lengthAdjust="spacing" textLength="75" x="714.75" y="27.8467">HelloPlayer</text><line style="stroke:#181818;stroke-width:0.5;" x1="573.5" x2="898.5" y1="39" y2="39"/><text fill="#000000" font-family="sans-serif" font-size="14" lengthAdjust="spacing" textLength="114" x="578.5" y="55.9951">HelloAudioPlayer</text><text fill="#000000" font-family="sans-serif" font-size="14" lengthAdjust="spacing" textLength="114" x="578.5" y="72.292">HelloVideoPlayer</text><text fill="#000000" font-family="sans-serif" font-size="14" lengthAdjust="spacing" textLength="223" x="578.5" y="88.5889">HelloAVDecoder audioDeocoder</text><text fill="#000000" font-family="sans-serif" font-size="14" lengthAdjust="spacing" textLength="222" x="578.5" y="104.8857">HelloAVDecoder videoDeocoder</text><text fill="#000000" font-family="sans-serif" font-size="14" lengthAdjust="spacing" textLength="116" x="578.5" y="121.1826">HelloDataReader</text><text fill="#000000" font-family="sans-serif" font-size="14" lengthAdjust="spacing" textLength="4" x="578.5" y="137.4795">&#160;</text><text fill="#000000" font-family="sans-serif" font-size="14" lengthAdjust="spacing" textLength="85" x="578.5" y="153.7764">HelloAVSync</text><text fill="#000000" font-family="sans-serif" font-size="14" lengthAdjust="spacing" textLength="4" x="578.5" y="170.0732">&#160;</text><text fill="#000000" font-family="sans-serif" font-size="14" lengthAdjust="spacing" textLength="117" x="578.5" y="186.3701">PlayConfig config</text><text fill="#000000" font-family="sans-serif" font-size="14" lengthAdjust="spacing" textLength="137" x="578.5" y="202.667">MediaInfo mediaInfo</text><line style="stroke:#181818;stroke-width:0.5;" x1="573.5" x2="898.5" y1="209.9688" y2="209.9688"/><ellipse cx="583.5" cy="223.6172" fill="#84BE84" rx="3" ry="3" style="stroke:#038048;stroke-width:1.0;"/><text fill="#000000" font-family="sans-serif" font-size="14" lengthAdjust="spacing" textLength="76" x="592.5" y="226.9639">setConfig()</text><text fill="#000000" font-family="sans-serif" font-size="14" lengthAdjust="spacing" textLength="152" x="592.5" y="243.2607">PlayConfig getConfig()</text><ellipse cx="583.5" cy="256.2109" fill="#84BE84" rx="3" ry="3" style="stroke:#038048;stroke-width:1.0;"/><text fill="#000000" font-family="sans-serif" font-size="14" lengthAdjust="spacing" textLength="88" x="592.5" y="259.5576">addSurface()</text><ellipse cx="583.5" cy="272.5078" fill="#84BE84" rx="3" ry="3" style="stroke:#038048;stroke-width:1.0;"/><text fill="#000000" font-family="sans-serif" font-size="14" lengthAdjust="spacing" textLength="114" x="592.5" y="275.8545">removeSurface()</text><text fill="#000000" font-family="sans-serif" font-size="14" lengthAdjust="spacing" textLength="4" x="592.5" y="292.1514">&#160;</text><ellipse cx="583.5" cy="305.1016" fill="#84BE84" rx="3" ry="3" style="stroke:#038048;stroke-width:1.0;"/><text fill="#000000" font-family="sans-serif" font-size="14" lengthAdjust="spacing" textLength="113" x="592.5" y="308.4482">setDataSource()</text><ellipse cx="583.5" cy="321.3984" fill="#84BE84" rx="3" ry="3" style="stroke:#038048;stroke-width:1.0;"/><text fill="#000000" font-family="sans-serif" font-size="14" lengthAdjust="spacing" textLength="155" x="592.5" y="324.7451">prepare(int64_t ptsUs)</text><ellipse cx="583.5" cy="337.6953" fill="#84BE84" rx="3" ry="3" style="stroke:#038048;stroke-width:1.0;"/><text fill="#000000" font-family="sans-serif" font-size="14" lengthAdjust="spacing" textLength="84" x="592.5" y="341.042">isPrepared()</text><ellipse cx="583.5" cy="353.9922" fill="#84BE84" rx="3" ry="3" style="stroke:#038048;stroke-width:1.0;"/><text fill="#000000" font-family="sans-serif" font-size="14" lengthAdjust="spacing" textLength="41" x="592.5" y="357.3389">start()</text><ellipse cx="583.5" cy="370.2891" fill="#84BE84" rx="3" ry="3" style="stroke:#038048;stroke-width:1.0;"/><text fill="#000000" font-family="sans-serif" font-size="14" lengthAdjust="spacing" textLength="69" x="592.5" y="373.6357">isPlaying()</text><ellipse cx="583.5" cy="386.5859" fill="#84BE84" rx="3" ry="3" style="stroke:#038048;stroke-width:1.0;"/><text fill="#000000" font-family="sans-serif" font-size="14" lengthAdjust="spacing" textLength="77" x="592.5" y="389.9326">isSeeking()</text><ellipse cx="583.5" cy="402.8828" fill="#84BE84" rx="3" ry="3" style="stroke:#038048;stroke-width:1.0;"/><text fill="#000000" font-family="sans-serif" font-size="14" lengthAdjust="spacing" textLength="301" x="592.5" y="406.2295">seekTo(int64_t ptsUs, bool autoPlay = true)</text><ellipse cx="583.5" cy="419.1797" fill="#84BE84" rx="3" ry="3" style="stroke:#038048;stroke-width:1.0;"/><text fill="#000000" font-family="sans-serif" font-size="14" lengthAdjust="spacing" textLength="53" x="592.5" y="422.5264">pause()</text><ellipse cx="583.5" cy="435.4766" fill="#84BE84" rx="3" ry="3" style="stroke:#038048;stroke-width:1.0;"/><text fill="#000000" font-family="sans-serif" font-size="14" lengthAdjust="spacing" textLength="186" x="592.5" y="438.8232">setVolume(double volume)</text><ellipse cx="583.5" cy="451.7734" fill="#84BE84" rx="3" ry="3" style="stroke:#038048;stroke-width:1.0;"/><text fill="#000000" font-family="sans-serif" font-size="14" lengthAdjust="spacing" textLength="173" x="592.5" y="455.1201">setSpeed(double speed)</text><ellipse cx="583.5" cy="468.0703" fill="#84BE84" rx="3" ry="3" style="stroke:#038048;stroke-width:1.0;"/><text fill="#000000" font-family="sans-serif" font-size="14" lengthAdjust="spacing" textLength="46" x="592.5" y="471.417">reset()</text></g><g id="link_IGLProgram_OESGLProgram"><path d="M286.2177,965.0617 C279.8847,967.7497 290.085,963.42 284,966 C236.201,986.27 181.831,1009.291 142.501,1025.938 " fill="none" id="IGLProgram-backto-OESGLProgram" style="stroke:#181818;stroke-width:1.0;"/><polygon fill="none" points="302.787,958.029,283.8735,959.5386,288.562,970.5848,302.787,958.029" style="stroke:#181818;stroke-width:1.0;"/></g><g id="link_IGLProgram_RGBAGLProgram"><path d="M327.3554,972.1376 C311.5674,991.9156 300.168,1006.196 284.388,1025.965 " fill="none" id="IGLProgram-backto-RGBAGLProgram" style="stroke:#181818;stroke-width:1.0;"/><polygon fill="none" points="338.585,958.07,322.6662,968.3944,332.0446,975.8808,338.585,958.07" style="stroke:#181818;stroke-width:1.0;"/></g><g id="link_IGLProgram_NV21GLProgram"><path d="M386.6446,972.1376 C402.4326,991.9156 413.832,1006.196 429.612,1025.965 " fill="none" id="IGLProgram-backto-NV21GLProgram" style="stroke:#181818;stroke-width:1.0;"/><polygon fill="none" points="375.415,958.07,381.9554,975.8808,391.3338,968.3944,375.415,958.07" style="stroke:#181818;stroke-width:1.0;"/></g><g id="link_IGLProgram_YUVGLProgram"><path d="M427.7517,965.1351 C434.0947,967.7991 423.887,963.488 430,966 C480.377,986.696 537.911,1009.483 579.844,1025.936 " fill="none" id="IGLProgram-backto-YUVGLProgram" style="stroke:#181818;stroke-width:1.0;"/><polygon fill="none" points="411.156,958.165,425.4284,970.667,430.0751,959.6031,411.156,958.165" style="stroke:#181818;stroke-width:1.0;"/></g><g id="link_SimpleCanvas_IGLProgram"><path codeLine="44" d="M357,799.364 C357,833.014 357,879.669 357,909.785 " fill="none" id="SimpleCanvas-backto-IGLProgram" style="stroke:#181818;stroke-width:1.0;"/><polygon fill="#181818" points="357,793.364,353,802.364,357,798.364,361,802.364,357,793.364" style="stroke:#181818;stroke-width:1.0;"/></g><g id="link_SimpleCanvas_HelloEGLContext"><path codeLine="45" d="M322.7669,797.6943 C293.1759,828.5483 252.414,871.05 222.889,901.835 " fill="none" id="SimpleCanvas-backto-HelloEGLContext" style="stroke:#181818;stroke-width:1.0;"/><polygon fill="#181818" points="326.92,793.364,317.8035,797.0908,323.4591,796.9726,323.5773,802.6282,326.92,793.364" style="stroke:#181818;stroke-width:1.0;"/></g><g id="link_OboAudioPlayer_Obo"><path codeLine="46" d="M641.2607,798.7368 C656.5977,829.5908 677.206,871.05 692.509,901.835 " fill="none" id="OboAudioPlayer-backto-Obo" style="stroke:#181818;stroke-width:1.0;"/><polygon fill="#181818" points="638.59,793.364,639.0142,803.2037,640.8156,797.8413,646.178,799.6427,638.59,793.364" style="stroke:#181818;stroke-width:1.0;"/></g><g id="link_HelloAVSync_HelloClock"><path codeLine="64" d="M879.2424,625.3634 C890.6874,642.9214 901.292,659.191 914.729,679.807 " fill="none" id="HelloAVSync-backto-HelloClock" style="stroke:#181818;stroke-width:1.0;"/><polygon fill="#181818" points="875.966,620.337,877.5297,630.0609,878.6964,624.5257,884.2316,625.6924,875.966,620.337" style="stroke:#181818;stroke-width:1.0;"/></g><g id="link_HelloProcessor_HelloAudioPlayer"><path d="M369.7512,297.0654 C430.3282,364.3854 539.953,486.21 594.913,547.287 " fill="none" id="HelloProcessor-backto-HelloAudioPlayer" style="stroke:#181818;stroke-width:1.0;"/><polygon fill="none" points="357.711,283.685,365.291,301.0788,374.2113,293.052,357.711,283.685" style="stroke:#181818;stroke-width:1.0;"/></g><g id="link_HelloProcessor_HelloVideoPlayer"><path d="M342.315,300.6278 C366.465,367.9478 408.892,486.21 430.802,547.287 " fill="none" id="HelloProcessor-backto-HelloVideoPlayer" style="stroke:#181818;stroke-width:1.0;"/><polygon fill="none" points="336.237,283.685,336.6674,302.6538,347.9626,298.6018,336.237,283.685" style="stroke:#181818;stroke-width:1.0;"/></g><g id="link_HelloProcessor_HelloAVDecoder"><path d="M282.5908,298.248 C233.6868,365.568 146.045,486.21 101.675,547.287 " fill="none" id="HelloProcessor-backto-HelloAVDecoder" style="stroke:#181818;stroke-width:1.0;"/><polygon fill="none" points="293.17,283.685,277.7365,294.7216,287.4452,301.7744,293.17,283.685" style="stroke:#181818;stroke-width:1.0;"/></g><g id="link_HelloProcessor_HelloDataReader"><path d="M311.3638,301.3836 C298.8868,368.7036 277.106,486.21 265.785,547.287 " fill="none" id="HelloProcessor-backto-HelloDataReader" style="stroke:#181818;stroke-width:1.0;"/><polygon fill="none" points="314.644,283.685,305.4642,300.2902,317.2633,302.477,314.644,283.685" style="stroke:#181818;stroke-width:1.0;"/></g><g id="link_HelloAudioPlayer_OboAudioPlayer"><path codeLine="83" d="M623,617.767 C623,650.612 623,695.967 623,728.791 " fill="none" id="HelloAudioPlayer-backto-OboAudioPlayer" style="stroke:#181818;stroke-width:1.0;"/><polygon fill="#181818" points="623,611.767,619,620.767,623,616.767,627,620.767,623,611.767" style="stroke:#181818;stroke-width:1.0;"/></g><g id="link_HelloVideoPlayer_SimpleCanvas"><path codeLine="84" d="M424.6262,617.1898 C409.0732,650.0348 387.322,695.967 371.779,728.791 " fill="none" id="HelloVideoPlayer-backto-SimpleCanvas" style="stroke:#181818;stroke-width:1.0;"/><polygon fill="#181818" points="427.194,611.767,419.7271,618.1893,425.0541,616.286,426.9574,621.613,427.194,611.767" style="stroke:#181818;stroke-width:1.0;"/></g><g id="link_HelloPlayer_HelloAudioPlayer"><path codeLine="124" d="M652.7572,490.4138 C643.7762,516.9978 639.566,529.463 633.597,547.13 " fill="none" id="HelloPlayer-backto-HelloAudioPlayer" style="stroke:#181818;stroke-width:1.0;"/><polygon fill="none" points="656.598,479.045,650.888,483.4491,652.7572,490.4138,658.4672,486.0096,656.598,479.045" style="stroke:#181818;stroke-width:1.0;"/></g><g id="link_HelloPlayer_HelloVideoPlayer"><path codeLine="125" d="M564.3149,439.3363 C524.3639,484.7903 494.009,519.327 469.416,547.307 " fill="none" id="HelloPlayer-backto-HelloVideoPlayer" style="stroke:#181818;stroke-width:1.0;"/><polygon fill="none" points="572.237,430.323,565.2715,432.189,564.3149,439.3363,571.2804,437.4704,572.237,430.323" style="stroke:#181818;stroke-width:1.0;"/></g><g id="link_HelloPlayer_HelloAVDecoder"><path codeLine="126" d="M563.1562,433.3924 C538.2292,453.7584 520.783,464.69 493,479 C362.417,546.256 308.319,495.574 168,539 C160.248,541.399 152.275,544.287 144.435,547.396 " fill="none" id="HelloPlayer-backto-HelloAVDecoder" style="stroke:#181818;stroke-width:1.0;"/><polygon fill="none" points="572.449,425.8,565.2718,426.4986,563.1562,433.3924,570.3334,432.6938,572.449,425.8" style="stroke:#181818;stroke-width:1.0;"/></g><g id="link_HelloPlayer_HelloDataReader"><path codeLine="127" d="M563.289,425.5074 C537.959,447.7274 520.17,461.035 493,479 C435.85,516.789 413.98,512.026 351,539 C344.667,541.712 338.092,544.541 331.504,547.384 " fill="none" id="HelloPlayer-backto-HelloDataReader" style="stroke:#181818;stroke-width:1.0;"/><polygon fill="none" points="572.31,417.594,565.1617,418.5437,563.289,425.5074,570.4373,424.5577,572.31,417.594" style="stroke:#181818;stroke-width:1.0;"/></g><g id="link_HelloPlayer_HelloAVSync"><path codeLine="128" d="M819.9759,490.4035 C827.6989,513.0655 830.87,522.37 836.51,538.918 " fill="none" id="HelloPlayer-backto-HelloAVSync" style="stroke:#181818;stroke-width:1.0;"/><polygon fill="none" points="816.105,479.045,814.2543,486.0146,819.9759,490.4035,821.8266,483.434,816.105,479.045" style="stroke:#181818;stroke-width:1.0;"/></g><g id="link_HelloPlayer_PlayConfig"><path codeLine="129" d="M909.8356,355.3944 C1017.0256,424.0824 1139.65,502.663 1209.61,547.489 " fill="none" id="HelloPlayer-backto-PlayConfig" style="stroke:#181818;stroke-width:1.0;"/><polygon fill="none" points="899.732,348.92,902.6256,355.5251,909.8356,355.3944,906.9419,348.7894,899.732,348.92" style="stroke:#181818;stroke-width:1.0;"/></g><g id="link_HelloPlayer_MediaInfo"><path codeLine="130" d="M910.3503,330.2501 C1029.9143,389.4421 1185.21,466.413 1331,539 C1336.49,541.734 1342.19,544.578 1347.91,547.43 " fill="none" id="HelloPlayer-backto-MediaInfo" style="stroke:#181818;stroke-width:1.0;"/><polygon fill="none" points="899.596,324.926,903.1984,331.1728,910.3503,330.2501,906.7478,324.0033,899.596,324.926" style="stroke:#181818;stroke-width:1.0;"/></g><g id="link_HelloPlayer_HelloPlayerCallback"><path codeLine="131" d="M908.4032,408.768 C971.3842,468.96 1027.64,522.729 1061.73,555.3 " fill="none" id="HelloPlayer-backto-HelloPlayerCallback" style="stroke:#181818;stroke-width:1.0;"/><polygon fill="none" points="899.728,400.477,901.3019,407.5142,908.4032,408.768,906.8293,401.7308,899.728,400.477" style="stroke:#181818;stroke-width:1.0;"/></g></g></svg>